<?xml version="1.0" encoding="UTF-8"?>
<svg width="380px" height="802px" viewBox="0 0 380 802" version="1.1" xmlns="http://www.w3.org/2000/svg" xmlns:xlink="http://www.w3.org/1999/xlink">
    <!-- Generator: Sketch 64 (93537) - https://sketch.com -->
    <title>S10 Copy 2</title>
    <desc>Created with Sketch.</desc>
    <g id="S10-Copy-2" stroke="none" stroke-width="1" fill="none" fill-rule="evenodd">
        <g id="S10">
            <path d="M378.5,140 C379.328427,140 380,140.671573 380,141.5 L380,192.5 C380,193.328427 379.328427,194 378.5,194 C377.671573,194 377,193.328427 377,192.5 L377,141.5 C377,140.671573 377.671573,140 378.5,140 Z" id="lock" fill="#7C7B80"></path>
            <path d="M1.5,105 C2.32842712,105 3,105.671573 3,106.5 L3,210.5 C3,211.328427 2.32842712,212 1.5,212 C0.671572875,212 0,211.328427 0,210.5 L0,106.5 C0,105.671573 0.671572875,105 1.5,105 Z" id="volume" fill="#7C7B80"></path>
            <path d="M1.5,260 C2.32842712,260 3,260.671573 3,261.5 L3,312.5 C3,313.328427 2.32842712,314 1.5,314 C0.671572875,314 0,313.328427 0,312.5 L0,261.5 C0,260.671573 0.671572875,260 1.5,260 Z" id="button" fill="#7C7B80"></path>
            <path d="M338.108753,0 C370.230379,0 378,12.356325 378,40 L378,762 C378,786.643675 364.692365,802 338.108753,802 L41.891247,802 C15.307635,802 2,786.643675 2,762 L2,40 C2,12.356325 10.378143,0 38.891247,0 L338.108753,0 Z M343,17 L37,17 C22.0883118,17 10,29.0883118 10,44 L10,44 L10,750 C10,764.911688 22.0883118,777 37,777 L37,777 L343,777 C357.911688,777 370,764.911688 370,750 L370,750 L370,44 C370,29.0883118 357.911688,17 343,17 L343,17 Z" id="Combined-Shape" fill="#A5A5A5"></path>
            <path d="M327.354522,6 C363.46861,6 375,15.7149249 375,45.386534 L375,755.613466 L375,755.613466 C375,785 362.03504,796 326.354522,796 L53.8679245,796 C17.9649596,796 5,785 5,755.613466 L5,45.386534 L5,45.386534 C5,16 16.96496,6 52.867925,6 L327.354522,6 L327.354522,6 Z M343,17 L37,17 C22.0883118,17 10,29.0883118 10,44 L10,44 L10,750 C10,764.911688 22.0883118,777 37,777 L37,777 L343,777 C357.911688,777 370,764.911688 370,750 L370,750 L370,44 C370,29.0883118 357.911688,17 343,17 L343,17 Z" id="Combined-Shape" fill="#020203"></path>
            <g id="cam" transform="translate(321.000000, 30.000000)">
                <circle id="Oval" fill="#020203" cx="13" cy="13" r="13"></circle>
                <circle id="Oval" fill="#212121" cx="13" cy="13" r="9"></circle>
            </g>
            <path d="M157.48852,6 L222.51148,6 C223.700234,6 224.663909,6.96367537 224.663909,8.15242919 C224.663909,8.64248526 224.496683,9.11787042 224.189873,9.5 L222.430538,11.6912441 C221.766227,12.5186403 220.762435,13 219.701353,13 L160.298647,13 C159.237565,13 158.233773,12.5186403 157.569462,11.6912441 L155.810127,9.5 C155.065884,8.57304893 155.213998,7.21827862 156.140949,6.47403581 C156.523079,6.16722653 156.998464,6 157.48852,6 Z" id="speaker" fill="#212121"></path>
        </g>
    </g>
</svg>